<svg width="15" height="13" viewBox="0 0 15 13" fill="none" xmlns="http://www.w3.org/2000/svg">
<path d="M8.02 9.33333C8.05333 9.8 8.16 10.2533 8.33333 10.6667H3.66667C2.66667 10.6667 1.79333 10.3333 1.07333 9.62C0.36 8.92 0 8.06 0 7.05333C0 6.18667 0.26 5.41333 0.78 4.73333C1.3 4.05333 2 3.62 2.83333 3.43333C3.11333 2.41333 3.66667 1.58667 4.5 0.953333C5.33333 0.32 6.28 0 7.33333 0C8.63333 0 9.73333 0.453333 10.64 1.36C11.5467 2.26667 12 3.36667 12 4.66667C12.0267 4.66667 12.0467 4.66667 12.0667 4.66667C11.5733 4.71333 11.1 4.82 10.6667 5V4.66667C10.6667 3.74667 10.3333 2.96 9.69333 2.30667C9.04 1.66667 8.25333 1.33333 7.33333 1.33333C6.41333 1.33333 5.62667 1.66667 4.97333 2.30667C4.33333 2.96 4 3.74667 4 4.66667H3.66667C3.02 4.66667 2.47333 4.89333 2.02 5.35333C1.56 5.80667 1.33333 6.35333 1.33333 7C1.33333 7.64667 1.56 8.19333 2.02 8.66667C2.47333 9.10667 3.02 9.33333 3.66667 9.33333H8.02ZM12 6.33333V5.33333L10.5 6.83333L12 8.33333V7.33333C12.92 7.33333 13.6667 8.08 13.6667 9C13.6667 9.26667 13.6067 9.52 13.4933 9.74667L14.22 10.4733C14.5 10.0533 14.6667 9.54667 14.6667 9C14.6667 7.52667 13.4733 6.33333 12 6.33333ZM12 10.6667C11.08 10.6667 10.3333 9.92 10.3333 9C10.3333 8.73333 10.3933 8.48 10.5067 8.25333L9.78 7.52667C9.5 7.94667 9.33333 8.45333 9.33333 9C9.33333 10.4733 10.5267 11.6667 12 11.6667V12.6667L13.5 11.1667L12 9.66667V10.6667Z" fill="@cpal.normalColor"/>
</svg>