<svg width="13" height="13" viewBox="0 0 13 13" fill="none" xmlns="http://www.w3.org/2000/svg">
<path d="M10.6667 6.72667V2.66667C10.6667 1.19333 8.28 0 5.33333 0C2.38667 0 0 1.19333 0 2.66667V9.33333C0 10.8067 2.39333 12 5.33333 12C5.64 12 5.93333 12 6.22 11.96C6.08 11.5533 6 11.12 6 10.6667V10.6333C5.78667 10.6667 5.56667 10.6667 5.33333 10.6667C2.75333 10.6667 1.33333 9.66667 1.33333 9.33333V7.84667C2.40667 8.36667 3.81333 8.66667 5.33333 8.66667C5.76667 8.66667 6.18 8.64 6.58667 8.59333C7.28667 7.44 8.55333 6.66667 10 6.66667C10.2267 6.66667 10.4467 6.69333 10.6667 6.72667ZM9.33333 6.3C8.46667 6.93333 6.94667 7.33333 5.33333 7.33333C3.72 7.33333 2.2 6.93333 1.33333 6.3V4.42667C2.31333 4.98 3.74 5.33333 5.33333 5.33333C6.92667 5.33333 8.35333 4.98 9.33333 4.42667V6.3ZM5.33333 4C2.75333 4 1.33333 3 1.33333 2.66667C1.33333 2.33333 2.75333 1.33333 5.33333 1.33333C7.91333 1.33333 9.33333 2.33333 9.33333 2.66667C9.33333 3 7.91333 4 5.33333 4ZM10.6667 12.6667V11.3333H8V10H10.6667V8.66667L12.6667 10.6667L10.6667 12.6667Z" fill="@cpal.normalColor"/>
</svg>