<svg width="18" height="18" viewBox="0 0 18 18" fill="none" xmlns="http://www.w3.org/2000/svg">
<path d="M9.00033 15.666C7.23222 15.666 5.53652 14.9636 4.28628 13.7134C3.03604 12.4632 2.33366 10.7675 2.33366 8.99935C2.33366 7.23124 3.03604 5.53555 4.28628 4.2853C5.53652 3.03506 7.23222 2.33268 9.00033 2.33268C10.7684 2.33268 12.4641 3.03506 13.7144 4.2853C14.9646 5.53555 15.667 7.23124 15.667 8.99935C15.667 10.7675 14.9646 12.4632 13.7144 13.7134C12.4641 14.9636 10.7684 15.666 9.00033 15.666ZM9.00033 0.666016C7.90598 0.666016 6.82234 0.881564 5.8113 1.30035C4.80025 1.71914 3.88159 2.33297 3.10777 3.10679C1.54497 4.6696 0.666992 6.78921 0.666992 8.99935C0.666992 11.2095 1.54497 13.3291 3.10777 14.8919C3.88159 15.6657 4.80025 16.2796 5.8113 16.6983C6.82234 17.1171 7.90598 17.3327 9.00033 17.3327C11.2105 17.3327 13.3301 16.4547 14.8929 14.8919C16.4557 13.3291 17.3337 11.2095 17.3337 8.99935C17.3337 7.905 17.1181 6.82137 16.6993 5.81032C16.2805 4.79927 15.6667 3.88061 14.8929 3.10679C14.1191 2.33297 13.2004 1.71914 12.1894 1.30035C11.1783 0.881564 10.0947 0.666016 9.00033 0.666016ZM9.00033 4.83268C7.89526 4.83268 6.83545 5.27167 6.05405 6.05307C5.27265 6.83447 4.83366 7.89428 4.83366 8.99935C4.83366 10.1044 5.27265 11.1642 6.05405 11.9456C6.83545 12.727 7.89526 13.166 9.00033 13.166C10.1054 13.166 11.1652 12.727 11.9466 11.9456C12.728 11.1642 13.167 10.1044 13.167 8.99935C13.167 7.89428 12.728 6.83447 11.9466 6.05307C11.1652 5.27167 10.1054 4.83268 9.00033 4.83268Z" fill="@ctext.1"/>
</svg>
