<svg width="20" height="20" viewBox="0 0 20 20" fill="none" xmlns="http://www.w3.org/2000/svg">
<path d="M10.0003 16.666C8.23222 16.666 6.53652 15.9636 5.28628 14.7134C4.03604 13.4632 3.33366 11.7675 3.33366 9.99935C3.33366 8.23124 4.03604 6.53555 5.28628 5.2853C6.53652 4.03506 8.23222 3.33268 10.0003 3.33268C11.7684 3.33268 13.4641 4.03506 14.7144 5.2853C15.9646 6.53555 16.667 8.23124 16.667 9.99935C16.667 11.7675 15.9646 13.4632 14.7144 14.7134C13.4641 15.9636 11.7684 16.666 10.0003 16.666ZM10.0003 1.66602C8.90598 1.66602 7.82234 1.88156 6.8113 2.30035C5.80025 2.71914 4.88159 3.33297 4.10777 4.10679C2.54497 5.6696 1.66699 7.78921 1.66699 9.99935C1.66699 12.2095 2.54497 14.3291 4.10777 15.8919C4.88159 16.6657 5.80025 17.2796 6.8113 17.6983C7.82234 18.1171 8.90598 18.3327 10.0003 18.3327C12.2105 18.3327 14.3301 17.4547 15.8929 15.8919C17.4557 14.3291 18.3337 12.2095 18.3337 9.99935C18.3337 8.905 18.1181 7.82137 17.6993 6.81032C17.2805 5.79927 16.6667 4.88061 15.8929 4.10679C15.1191 3.33297 14.2004 2.71914 13.1894 2.30035C12.1783 1.88156 11.0947 1.66602 10.0003 1.66602Z" fill="@cIcon.f1"/>
</svg>
