<svg width="20" height="20" viewBox="0 0 20 20" fill="none" xmlns="http://www.w3.org/2000/svg">
<path d="M14.709 5.29232C13.5007 4.08398 11.8423 3.33398 10.0007 3.33398C8.23254 3.33398 6.53685 4.03636 5.28661 5.28661C4.03636 6.53685 3.33398 8.23254 3.33398 10.0007C3.33398 11.7688 4.03636 13.4645 5.28661 14.7147C6.53685 15.9649 8.23254 16.6673 10.0007 16.6673C13.109 16.6673 15.7007 14.5423 16.4423 11.6673H14.709C14.0257 13.609 12.1757 15.0007 10.0007 15.0007C8.67457 15.0007 7.4028 14.4739 6.46512 13.5362C5.52744 12.5985 5.00065 11.3267 5.00065 10.0007C5.00065 8.67457 5.52744 7.4028 6.46512 6.46512C7.4028 5.52744 8.67457 5.00065 10.0007 5.00065C11.384 5.00065 12.6173 5.57565 13.5173 6.48398L10.834 9.16732H16.6673V3.33398L14.709 5.29232Z" fill="@cIcon.f1"/>
</svg>