<svg width="323" height="90" viewBox="0 0 323 90" fill="none" xmlns="http://www.w3.org/2000/svg">
<g clip-path="url(#clip0_331_63806)">
<path d="M90 0H0V90H90V0Z" fill="#E11936"/>
<path d="M78.8724 19.5463C78.8724 21.6279 78.1734 23.4034 76.7755 24.8728C75.3775 26.3473 73.7091 27.082 71.7653 27.082C69.8214 27.082 68.0612 26.332 66.6479 24.8371C65.2398 23.3371 64.5357 21.5208 64.5357 19.3779C64.5357 17.2351 65.2347 15.5718 66.6326 14.1126C68.0255 12.6585 69.7142 11.929 71.6836 11.929C73.653 11.929 75.3469 12.6739 76.7551 14.1534C78.1632 15.6381 78.8673 17.4341 78.8673 19.5463H78.8724Z" fill="white"/>
<path d="M77.3061 31.1023H66.0612V77.6737H77.3061V31.1023Z" fill="white"/>
<path d="M44.6887 31.1021V36.2398C42.6887 34.1225 40.5051 32.5409 38.1479 31.4898C35.7908 30.4337 33.2653 29.9082 30.5816 29.9082C24.7398 29.9082 19.7806 32.2041 15.6887 36.8011C11.6071 41.398 9.56119 47.2909 9.56119 54.4796C9.56119 61.6684 11.6683 67.2143 15.8928 71.8776C20.1173 76.5409 25.1173 78.8725 30.9081 78.8725C33.4847 78.8725 35.8775 78.398 38.0867 77.4388C40.2959 76.4847 42.4949 74.9235 44.6887 72.7552V77.6735H55.9336V31.1021H44.6887ZM41.6938 64.3419C39.3673 66.898 36.4438 68.1735 32.9132 68.1735C29.3826 68.1735 26.6122 66.8725 24.2704 64.2807C21.9285 61.6837 20.7602 58.3674 20.7602 54.347C20.7602 50.3266 21.9081 47.0817 24.2091 44.5256C26.5051 41.9694 29.3928 40.6939 32.8673 40.6939C36.3418 40.6939 39.3622 41.949 41.6887 44.4592C44.0102 46.9643 45.1785 50.25 45.1785 54.3011C45.1785 58.3521 44.0102 61.7858 41.6887 64.3419H41.6938Z" fill="white"/>
<path d="M151.385 12.7075V77.2739H145.477V69.2637C142.967 72.3198 140.146 74.6157 137.018 76.1565C133.89 77.6973 130.472 78.4677 126.763 78.4677C120.171 78.4677 114.538 76.0749 109.87 71.2943C105.202 66.5136 102.87 60.6973 102.87 53.8453C102.87 46.9932 105.227 41.4014 109.936 36.6361C114.645 31.8708 120.314 29.4881 126.936 29.4881C130.763 29.4881 134.222 30.2994 137.324 31.9269C140.421 33.5545 143.14 35.9932 145.482 39.2483V12.7075H151.39H151.385ZM127.431 35.2738C124.094 35.2738 121.018 36.0953 118.191 37.733C115.37 39.3708 113.125 41.6769 111.457 44.6412C109.788 47.6055 108.957 50.7432 108.957 54.0494C108.957 57.3555 109.799 60.4626 111.477 63.4575C113.156 66.4473 115.421 68.779 118.253 70.4473C121.094 72.1157 124.135 72.9473 127.385 72.9473C130.635 72.9473 133.773 72.1208 136.707 70.4677C139.646 68.8096 141.901 66.5749 143.482 63.7534C145.064 60.932 145.855 57.7483 145.855 54.2126C145.855 48.8198 144.084 44.3198 140.533 40.6973C136.982 37.0749 132.615 35.2687 127.421 35.2687L127.431 35.2738Z" fill="@cIcon.f1"/>
<path d="M161.916 30.6936H168.038V37.4997C169.865 34.8212 171.793 32.811 173.819 31.4844C175.85 30.1579 177.957 29.4946 180.156 29.4946C181.814 29.4946 183.579 30.0252 185.462 31.0814L182.334 36.1324C181.079 35.5916 180.023 35.3212 179.166 35.3212C177.171 35.3212 175.242 36.1426 173.385 37.7854C171.528 39.4283 170.115 41.9742 169.145 45.4283C168.401 48.0865 168.033 53.4538 168.033 61.5304V77.2855H161.911V30.6936H161.916Z" fill="@cIcon.f1"/>
<path d="M197.324 11.5156C198.686 11.5156 199.855 12.0054 200.819 12.9697C201.783 13.934 202.268 15.1075 202.268 16.4799C202.268 17.8524 201.783 18.9748 200.819 19.9493C199.855 20.9238 198.686 21.4034 197.324 21.4034C195.962 21.4034 194.834 20.9136 193.87 19.9493C192.906 18.985 192.421 17.8217 192.421 16.4799C192.421 15.1381 192.906 13.9391 193.87 12.9697C194.834 12.0003 195.987 11.5156 197.324 11.5156ZM194.35 30.6942H200.344V77.2809H194.35V30.6942Z" fill="@cIcon.f1"/>
<path d="M210.88 12.7075H216.875V77.2739H210.88V12.7075Z" fill="@cIcon.f1"/>
<path d="M227.406 12.7075H233.401V77.2739H227.406V12.7075Z" fill="@cIcon.f1"/>
<path d="M283.793 61.8212L288.844 64.4793C287.186 67.7344 285.268 70.362 283.1 72.3569C280.926 74.3518 278.487 75.8722 275.773 76.9181C273.059 77.964 269.987 78.4844 266.559 78.4844C258.962 78.4844 253.013 75.9946 248.732 71.0099C244.447 66.0303 242.304 60.3977 242.304 54.1171C242.304 48.2089 244.115 42.9436 247.748 38.3161C252.344 32.4334 258.503 29.4946 266.217 29.4946C273.931 29.4946 280.503 32.5099 285.242 38.5252C288.615 42.7803 290.329 48.0916 290.385 54.4487H248.467C248.579 59.8569 250.314 64.2957 253.656 67.7548C256.998 71.214 261.13 72.9436 266.043 72.9436C268.416 72.9436 270.722 72.5354 272.967 71.7089C275.207 70.8824 277.115 69.7854 278.691 68.4232C280.263 67.0559 281.962 64.8518 283.793 61.811V61.8212ZM283.447 49.2752C282.646 46.0763 281.487 43.5201 279.952 41.6069C278.421 39.6936 276.401 38.1528 273.885 36.9844C271.375 35.8161 268.727 35.2293 265.952 35.2293C261.375 35.2293 257.452 36.7038 254.161 39.6375C251.758 41.7752 249.947 44.9895 248.717 49.2701H283.447V49.2752Z" fill="@cIcon.f1"/>
<path d="M299.293 30.6936H305.416V37.4997C307.242 34.8212 309.171 32.811 311.197 31.4844C313.227 30.1579 315.334 29.4946 317.533 29.4946C319.191 29.4946 320.957 30.0252 322.839 31.0814L319.712 36.1324C318.457 35.5916 317.401 35.3212 316.543 35.3212C314.549 35.3212 312.62 36.1426 310.763 37.7854C308.906 39.4283 307.492 41.9742 306.523 45.4283C305.778 48.0865 305.411 53.4538 305.411 61.5304V77.2855H299.288V30.6936H299.293Z" fill="@cIcon.f1"/>
</g>
<defs>
<clipPath id="clip0_331_63806">
<rect width="322.839" height="90" fill="white"/>
</clipPath>
</defs>
</svg>
