<svg width="116" height="70" viewBox="0 0 116 70" fill="none" xmlns="http://www.w3.org/2000/svg">
<path fill-rule="evenodd" clip-rule="evenodd" d="M1.764 65.404C2.14667 65.5347 2.576 65.6 3.052 65.6H13.874C14.042 65.6 14.1587 65.6513 14.224 65.754C14.2987 65.8473 14.336 65.936 14.336 66.02C14.336 66.104 14.2987 66.1973 14.224 66.3C14.1587 66.3933 14.042 66.44 13.874 66.44H0.56V68.9736C6.34407 67.8945 12.4101 67.0068 18.7035 66.3318C18.6685 66.1549 18.6174 65.9857 18.55 65.824C18.41 65.488 18.2093 65.2033 17.948 64.97C17.6867 64.7273 17.3647 64.5407 16.982 64.41C16.6087 64.27 16.184 64.2 15.708 64.2H4.886C4.718 64.2 4.59667 64.1533 4.522 64.06C4.45667 63.9573 4.424 63.864 4.424 63.78C4.424 63.696 4.45667 63.6073 4.522 63.514C4.59667 63.4113 4.718 63.36 4.886 63.36H18.2V60H3.052C2.576 60 2.14667 60.0747 1.764 60.224C1.39067 60.3733 1.07333 60.5787 0.812 60.84C0.550667 61.092 0.35 61.3953 0.21 61.75C0.07 62.0953 0 62.4687 0 62.87C0 63.2713 0.07 63.64 0.21 63.976C0.35 64.312 0.550667 64.6013 0.812 64.844C1.07333 65.0773 1.39067 65.264 1.764 65.404ZM18.7354 67.3341C12.8002 67.9725 7.0706 68.8006 1.59266 69.8H15.708C16.184 69.8 16.6087 69.7253 16.982 69.576C17.3647 69.4267 17.6867 69.226 17.948 68.974C18.2093 68.7127 18.41 68.4093 18.55 68.064C18.6421 67.8308 18.7039 67.5875 18.7354 67.3341ZM99.5151 69.8C98.786 69.6486 98.052 69.5004 97.3131 69.3553V66.44H110.627C110.795 66.44 110.912 66.3933 110.977 66.3C111.052 66.1973 111.089 66.104 111.089 66.02C111.089 65.936 111.052 65.8473 110.977 65.754C110.912 65.6513 110.795 65.6 110.627 65.6H99.8051C99.3291 65.6 98.8998 65.5347 98.5171 65.404C98.1438 65.264 97.8265 65.0773 97.5651 64.844C97.3038 64.6013 97.1031 64.312 96.9631 63.976C96.8231 63.64 96.7531 63.2713 96.7531 62.87C96.7531 62.4687 96.8231 62.0953 96.9631 61.75C97.1031 61.3953 97.3038 61.092 97.5651 60.84C97.8265 60.5787 98.1438 60.3733 98.5171 60.224C98.8998 60.0747 99.3291 60 99.8051 60H114.953V63.36H101.639C101.471 63.36 101.35 63.4113 101.275 63.514C101.21 63.6073 101.177 63.696 101.177 63.78C101.177 63.864 101.21 63.9573 101.275 64.06C101.35 64.1533 101.471 64.2 101.639 64.2H112.461C112.937 64.2 113.362 64.27 113.735 64.41C114.118 64.5407 114.44 64.7273 114.701 64.97C114.962 65.2033 115.163 65.488 115.303 65.824C115.443 66.16 115.513 66.5287 115.513 66.93C115.513 67.3313 115.443 67.7093 115.303 68.064C115.163 68.4093 114.962 68.7127 114.701 68.974C114.44 69.226 114.118 69.4267 113.735 69.576C113.362 69.7253 112.937 69.8 112.461 69.8H99.5151ZM95.3482 68.9789C91.9544 68.3453 88.4634 67.7775 84.8863 67.28H95.3482V68.9789ZM81.5722 66.8423V66.16H95.3482V63.64H81.5722V62.52H95.3482V60H77.1482V66.3287C78.6358 66.4881 80.1107 66.6594 81.5722 66.8423ZM77.1482 67.3345C83.0821 67.9728 88.8105 68.8008 94.2874 69.8H77.1482V67.3345ZM61.6972 65.1322C61.6856 65.0584 61.6798 64.981 61.6798 64.9C61.6798 64.508 61.8152 64.2 62.0858 63.976C62.3565 63.752 62.6878 63.64 63.0798 63.64H75.4698V60H62.1698C61.4978 60 60.8632 60.1307 60.2658 60.392C59.6685 60.644 59.1458 60.994 58.6978 61.442C58.2592 61.8807 57.9092 62.3987 57.6478 62.996C57.3958 63.5933 57.2698 64.228 57.2698 64.9C57.2698 64.9174 57.2699 64.9348 57.2701 64.9521C58.7544 65.0007 60.2303 65.0608 61.6972 65.1322ZM57.3801 65.9563C63.5742 66.1623 69.6186 66.5691 75.4698 67.1595V69.8H62.1698C61.4978 69.8 60.8632 69.674 60.2658 69.422C59.6685 69.1607 59.1458 68.8107 58.6978 68.372C58.2592 67.924 57.9092 67.4013 57.6478 66.804C57.532 66.5293 57.4427 66.2468 57.3801 65.9563ZM53.9656 64.8633L50.0264 60H45.0424L41.0881 64.8819C42.7604 64.8418 44.4429 64.8163 46.1347 64.8057L47.5344 63.08L48.9309 64.8017C50.6185 64.8075 52.297 64.8282 53.9656 64.8633ZM40.2607 65.9033C42.7973 65.8348 45.358 65.8 47.94 65.8C50.2412 65.8 52.5255 65.8277 54.7909 65.8821L57.9644 69.8H52.9804L51.8464 68.4H43.2224L42.0884 69.8H37.1044L40.2607 65.9033ZM38.2309 65.9654C38.0943 66.1983 37.9338 66.4172 37.7495 66.622C37.4135 66.986 37.0028 67.28 36.5175 67.504C36.0321 67.728 35.4815 67.84 34.8655 67.84H24.5895V69.8H20.1655V67.1843C26.0082 66.5891 32.0444 66.1771 38.2309 65.9654ZM38.6503 64.9508C32.3202 65.1572 26.1432 65.5726 20.1655 66.1792V60H34.8655C35.4815 60 36.0321 60.112 36.5175 60.336C37.0028 60.56 37.4135 60.8587 37.7495 61.232C38.0855 61.596 38.3421 62.0113 38.5195 62.478C38.6968 62.9447 38.7855 63.4253 38.7855 63.92C38.7855 64.266 38.7404 64.6096 38.6503 64.9508ZM24.5895 64.48V63.36H33.7455C34.1561 63.36 34.3615 63.5467 34.3615 63.92C34.3615 64.2933 34.1561 64.48 33.7455 64.48H24.5895Z" fill="url(#paint0_linear_172_3914)"/>
<g clip-path="url(#clip0_172_3914)">
<path d="M73 0H43C38.0294 0 34 4.02944 34 9V39C34 43.9706 38.0294 48 43 48H73C77.9706 48 82 43.9706 82 39V9C82 4.02944 77.9706 0 73 0Z" fill="url(#paint1_radial_172_3914)"/>
<path d="M73.5144 12.3301C73.5144 13.287 73.1931 14.1031 72.5505 14.7785C71.9079 15.4563 71.141 15.794 70.2475 15.794C69.354 15.794 68.5449 15.4493 67.8952 14.7621C67.248 14.0726 66.9243 13.2377 66.9243 12.2527C66.9243 11.2678 67.2456 10.5032 67.8882 9.83249C68.5284 9.1641 69.3047 8.82874 70.21 8.82874C71.1152 8.82874 71.8938 9.17114 72.5411 9.85125C73.1884 10.5337 73.512 11.3592 73.512 12.3301H73.5144Z" fill="white"/>
<path d="M72.7948 17.6423H67.626V39.0494H72.7948V17.6423Z" fill="white"/>
<path d="M57.8025 17.6418V20.0034C56.8832 19.0302 55.8795 18.3031 54.796 17.82C53.7125 17.3346 52.5516 17.093 51.318 17.093C48.6328 17.093 46.3532 18.1484 44.4724 20.2614C42.5962 22.3744 41.6558 25.0832 41.6558 28.3876C41.6558 31.692 42.6243 34.2412 44.5662 36.3847C46.508 38.5282 48.8063 39.6 51.4681 39.6C52.6525 39.6 53.7524 39.3819 54.7678 38.941C55.7833 38.5024 56.7941 37.7848 57.8025 36.7881V39.0489H62.9714V17.6418H57.8025ZM56.4259 32.9208C55.3565 34.0958 54.0127 34.6821 52.3898 34.6821C50.7669 34.6821 49.4935 34.0841 48.417 32.8927C47.3406 31.699 46.8035 30.1746 46.8035 28.3266C46.8035 26.4786 47.3312 24.987 48.3889 23.812C49.4442 22.6371 50.7716 22.0508 52.3687 22.0508C53.9658 22.0508 55.3541 22.6277 56.4236 23.7816C57.4906 24.9331 58.0277 26.4434 58.0277 28.3055C58.0277 30.1676 57.4906 31.7459 56.4236 32.9208H56.4259Z" fill="white"/>
</g>
<defs>
<linearGradient id="paint0_linear_172_3914" x1="87.5132" y1="69.6" x2="66.5817" y2="3.16251" gradientUnits="userSpaceOnUse">
<stop/>
<stop offset="0.25" stop-color="#54585E"/>
</linearGradient>
<radialGradient id="paint1_radial_172_3914" cx="0" cy="0" r="1" gradientUnits="userSpaceOnUse" gradientTransform="translate(2.03313 79.9669) rotate(-45) scale(115.048)">
<stop offset="0.473977" stop-color="#282D35"/>
<stop offset="0.692307"/>
<stop offset="0.743727" stop-color="#141414"/>
<stop offset="0.820853" stop-color="#3B404A"/>
<stop offset="0.965046" stop-color="#15161A"/>
</radialGradient>
<clipPath id="clip0_172_3914">
<rect width="48" height="48" fill="white" transform="translate(34)"/>
</clipPath>
</defs>
</svg>
