<svg width="120" height="120" viewBox="0 0 120 120" fill="none" xmlns="http://www.w3.org/2000/svg">
<rect width="120" height="120" rx="26" fill="#E11936"/>
<path d="M60.9766 41.875H74.2578V95H60.9766V89.3848C58.3724 91.8587 55.752 93.6491 53.1152 94.7559C50.5111 95.8301 47.679 96.3672 44.6191 96.3672C37.7507 96.3672 31.8099 93.7142 26.7969 88.4082C21.7839 83.0697 19.2773 76.4453 19.2773 68.5352C19.2773 60.332 21.7025 53.61 26.5527 48.3691C31.403 43.1283 37.2949 40.5078 44.2285 40.5078C47.4186 40.5078 50.4134 41.11 53.2129 42.3145C56.0124 43.5189 58.6003 45.3255 60.9766 47.7344V41.875ZM46.9629 52.8125C42.8288 52.8125 39.3945 54.2773 36.6602 57.207C33.9258 60.1042 32.5586 63.8314 32.5586 68.3887C32.5586 72.9785 33.9421 76.7546 36.709 79.7168C39.5085 82.679 42.9427 84.1602 47.0117 84.1602C51.2109 84.1602 54.694 82.7116 57.4609 79.8145C60.2279 76.8848 61.6113 73.0599 61.6113 68.3398C61.6113 63.7174 60.2279 59.974 57.4609 57.1094C54.694 54.2448 51.1947 52.8125 46.9629 52.8125ZM92.959 20C95.3027 20 97.3047 20.8464 98.9648 22.5391C100.658 24.2318 101.504 26.2826 101.504 28.6914C101.504 31.0677 100.674 33.1022 99.0137 34.7949C97.3535 36.4551 95.3678 37.2852 93.0566 37.2852C90.6803 37.2852 88.6458 36.4388 86.9531 34.7461C85.293 33.0208 84.4629 30.9375 84.4629 28.4961C84.4629 26.1523 85.293 24.1504 86.9531 22.4902C88.6133 20.8301 90.6152 20 92.959 20ZM86.2695 41.875H99.6484V95H86.2695V41.875Z" fill="white"/>
</svg>
