<svg width="24" height="24" viewBox="0 0 24 24" fill="none" xmlns="http://www.w3.org/2000/svg">
<g clip-path="url(#clip0_172_4554)">
<path d="M19.5 0H4.5C2.01472 0 0 2.01472 0 4.5V19.5C0 21.9853 2.01472 24 4.5 24H19.5C21.9853 24 24 21.9853 24 19.5V4.5C24 2.01472 21.9853 0 19.5 0Z" fill="url(#paint0_radial_172_4554)"/>
<path d="M19.7572 6.16507C19.7572 6.64349 19.5965 7.05156 19.2752 7.38927C18.9539 7.72815 18.5705 7.89701 18.1237 7.89701C17.677 7.89701 17.2724 7.72463 16.9476 7.38106C16.624 7.03631 16.4622 6.61887 16.4622 6.12637C16.4622 5.63388 16.6228 5.25161 16.9441 4.91624C17.2642 4.58205 17.6524 4.41437 18.105 4.41437C18.5576 4.41437 18.9469 4.58557 19.2705 4.92562C19.5942 5.26685 19.756 5.67961 19.756 6.16507H19.7572Z" fill="white"/>
<path d="M19.3974 8.82117H16.813V19.5247H19.3974V8.82117Z" fill="white"/>
<path d="M11.9013 8.8209V10.0017C11.4416 9.51508 10.9397 9.15157 10.398 8.91002C9.85625 8.66729 9.27581 8.54651 8.65902 8.54651C7.31638 8.54651 6.17661 9.07418 5.23618 10.1307C4.2981 11.1872 3.82788 12.5416 3.82788 14.1938C3.82788 15.846 4.31217 17.1206 5.28308 18.1924C6.254 19.2641 7.40316 19.8 8.73406 19.8C9.32623 19.8 9.87618 19.691 10.3839 19.4705C10.8917 19.2512 11.3971 18.8924 11.9013 18.3941V19.5244H14.4857V8.8209H11.9013ZM11.213 16.4604C10.6782 17.0479 10.0063 17.341 9.1949 17.341C8.38345 17.341 7.74673 17.042 7.2085 16.4464C6.67028 15.8495 6.40175 15.0873 6.40175 14.1633C6.40175 13.2393 6.66559 12.4935 7.19443 11.906C7.7221 11.3185 8.3858 11.0254 9.18434 11.0254C9.98289 11.0254 10.6771 11.3139 11.2118 11.8908C11.7453 12.4665 12.0138 13.2217 12.0138 14.1527C12.0138 15.0838 11.7453 15.8729 11.2118 16.4604H11.213Z" fill="white"/>
</g>
<defs>
<radialGradient id="paint0_radial_172_4554" cx="0" cy="0" r="1" gradientUnits="userSpaceOnUse" gradientTransform="translate(-15.9834 39.9834) rotate(-45) scale(57.5242)">
<stop offset="0.473977" stop-color="#282D35"/>
<stop offset="0.692307"/>
<stop offset="0.743727" stop-color="#141414"/>
<stop offset="0.820853" stop-color="#3B404A"/>
<stop offset="0.965046" stop-color="#15161A"/>
</radialGradient>
<clipPath id="clip0_172_4554">
<rect width="24" height="24" fill="white"/>
</clipPath>
</defs>
</svg>
